ffmpeg version 4.4-essentials_build-www.gyan.dev Copyright (c) 2000-2021 the FFmpeg developers
  built with gcc 10.2.0 (Rev6, Built by MSYS2 project)
  configuration: --enable-gpl --enable-version3 --enable-static --disable-w32threads --disable-autodetect --enable-fontconfig --enable-iconv --enable-gnutls --enable-libxml2 --enable-gmp --enable-lzma --enable-zlib --enable-libsrt --enable-libssh --enable-libzmq --enable-avisynth --enable-sdl2 --enable-libwebp --enable-libx264 --enable-libx265 --enable-libxvid --enable-libaom --enable-libopenjpeg --enable-libvpx --enable-libass --enable-libfreetype --enable-libfribidi --enable-libvidstab --enable-libvmaf --enable-libzimg --enable-amf --enable-cuda-llvm --enable-cuvid --enable-ffnvcodec --enable-nvdec --enable-nvenc --enable-d3d11va --enable-dxva2 --enable-libmfx --enable-libgme --enable-libopenmpt --enable-libopencore-amrwb --enable-libmp3lame --enable-libtheora --enable-libvo-amrwbenc --enable-libgsm --enable-libopencore-amrnb --enable-libopus --enable-libspeex --enable-libvorbis --enable-librubberband
  libavutil      56. 70.100 / 56. 70.100
  libavcodec     58.134.100 / 58.134.100
  libavformat    58. 76.100 / 58. 76.100
  libavdevice    58. 13.100 / 58. 13.100
  libavfilter     7.110.100 /  7.110.100
  libswscale      5.  9.100 /  5.  9.100
  libswresample   3.  9.100 /  3.  9.100
  libpostproc    55.  9.100 / 55.  9.100
Splitting the commandline.
Reading option '-v' ... matched as option 'v' (set logging level) with argument 'debug'.
Reading option '-nostdin' ... matched as option 'stdin' (enable or disable interaction on standard input) with argument 0.
Reading option '-progress' ... matched as option 'progress' (write program-readable progress information) with argument 'C:/Users/Raq/AppData/Local/Temp/KritaFFmpegProgress.cVCLmU'.
Reading option '-r' ... matched as option 'r' (set frame rate (Hz value, fraction or abbreviation)) with argument '24'.
Reading option '-start_number' ... matched as AVOption 'start_number' with argument '0'.
Reading option '-i' ... matched as input url with argument 'C:/Users/Raq/Desktop/mirkan projects/solanaDrink/static/gif/frame%04d.png'.
Reading option '-vf' ... matched as option 'vf' (set video filters) with argument 'palettegen'.
Reading option '-y' ... matched as option 'y' (overwrite output files) with argument '1'.
Reading option 'C:/Users/Raq/Desktop/mirkan projects/solanaDrink/static/gif/palette.png' ... matched as output url.
Finished splitting the commandline.
Parsing a group of options: global .
Applying option v (set logging level) with argument debug.
Applying option nostdin (enable or disable interaction on standard input) with argument 0.
Applying option progress (write program-readable progress information) with argument C:/Users/Raq/AppData/Local/Temp/KritaFFmpegProgress.cVCLmU.
[file @ 00000203ad48e140] Setting default whitelist 'file,crypto,data'
Applying option y (overwrite output files) with argument 1.
Successfully parsed a group of options.
Parsing a group of options: input url C:/Users/Raq/Desktop/mirkan projects/solanaDrink/static/gif/frame%04d.png.
Applying option r (set frame rate (Hz value, fraction or abbreviation)) with argument 24.
Successfully parsed a group of options.
Opening an input file: C:/Users/Raq/Desktop/mirkan projects/solanaDrink/static/gif/frame%04d.png.
[image2 @ 00000203ad4cecc0] Opening 'C:/Users/Raq/Desktop/mirkan projects/solanaDrink/static/gif/frame0000.png' for reading
[file @ 00000203ad4d2800] Setting default whitelist 'file,crypto,data'
[AVIOContext @ 00000203ad4da9c0] Statistics: 67923 bytes read, 0 seeks
[image2 @ 00000203ad4cecc0] Opening 'C:/Users/Raq/Desktop/mirkan projects/solanaDrink/static/gif/frame0001.png' for reading
[file @ 00000203ad4d28c0] Setting default whitelist 'file,crypto,data'
[AVIOContext @ 00000203ad4d2a40] Statistics: 67923 bytes read, 0 seeks
[image2 @ 00000203ad4cecc0] Opening 'C:/Users/Raq/Desktop/mirkan projects/solanaDrink/static/gif/frame0002.png' for reading
[file @ 00000203ad4d2940] Setting default whitelist 'file,crypto,data'
[AVIOContext @ 00000203ad4d2c80] Statistics: 67923 bytes read, 0 seeks
[image2 @ 00000203ad4cecc0] Opening 'C:/Users/Raq/Desktop/mirkan projects/solanaDrink/static/gif/frame0003.png' for reading
[file @ 00000203ad4d2940] Setting default whitelist 'file,crypto,data'
[AVIOContext @ 00000203ad4d2e40] Statistics: 67923 bytes read, 0 seeks
[image2 @ 00000203ad4cecc0] Opening 'C:/Users/Raq/Desktop/mirkan projects/solanaDrink/static/gif/frame0004.png' for reading
[file @ 00000203ad4d2940] Setting default whitelist 'file,crypto,data'
[AVIOContext @ 00000203ad4d3000] Statistics: 67923 bytes read, 0 seeks
[image2 @ 00000203ad4cecc0] Opening 'C:/Users/Raq/Desktop/mirkan projects/solanaDrink/static/gif/frame0005.png' for reading
[file @ 00000203ad4d2940] Setting default whitelist 'file,crypto,data'
[AVIOContext @ 00000203ad4d31c0] Statistics: 67923 bytes read, 0 seeks
[image2 @ 00000203ad4cecc0] Opening 'C:/Users/Raq/Desktop/mirkan projects/solanaDrink/static/gif/frame0006.png' for reading
[file @ 00000203ad4d2940] Setting default whitelist 'file,crypto,data'
[AVIOContext @ 00000203ad4d3380] Statistics: 67923 bytes read, 0 seeks
[image2 @ 00000203ad4cecc0] Opening 'C:/Users/Raq/Desktop/mirkan projects/solanaDrink/static/gif/frame0007.png' for reading
[file @ 00000203ad4d2940] Setting default whitelist 'file,crypto,data'
[AVIOContext @ 00000203ad4d4540] Statistics: 67923 bytes read, 0 seeks
[image2 @ 00000203ad4cecc0] Opening 'C:/Users/Raq/Desktop/mirkan projects/solanaDrink/static/gif/frame0008.png' for reading
[file @ 00000203ad4d2940] Setting default whitelist 'file,crypto,data'
[AVIOContext @ 00000203ad4d4540] Statistics: 67923 bytes read, 0 seeks
[image2 @ 00000203ad4cecc0] Opening 'C:/Users/Raq/Desktop/mirkan projects/solanaDrink/static/gif/frame0009.png' for reading
[file @ 00000203ad4d2940] Setting default whitelist 'file,crypto,data'
[AVIOContext @ 00000203ad4d4540] Statistics: 67923 bytes read, 0 seeks
[image2 @ 00000203ad4cecc0] Opening 'C:/Users/Raq/Desktop/mirkan projects/solanaDrink/static/gif/frame0010.png' for reading
[file @ 00000203ad4d2940] Setting default whitelist 'file,crypto,data'
[AVIOContext @ 00000203ad4d4540] Statistics: 68607 bytes read, 0 seeks
[image2 @ 00000203ad4cecc0] Opening 'C:/Users/Raq/Desktop/mirkan projects/solanaDrink/static/gif/frame0011.png' for reading
[file @ 00000203ad4d2940] Setting default whitelist 'file,crypto,data'
[AVIOContext @ 00000203ad4d4540] Statistics: 68607 bytes read, 0 seeks
[image2 @ 00000203ad4cecc0] Opening 'C:/Users/Raq/Desktop/mirkan projects/solanaDrink/static/gif/frame0012.png' for reading
[file @ 00000203ad4d2940] Setting default whitelist 'file,crypto,data'
[AVIOContext @ 00000203ad4d4540] Statistics: 68607 bytes read, 0 seeks
[image2 @ 00000203ad4cecc0] Opening 'C:/Users/Raq/Desktop/mirkan projects/solanaDrink/static/gif/frame0013.png' for reading
[file @ 00000203ad4d2940] Setting default whitelist 'file,crypto,data'
[AVIOContext @ 00000203ad4d4540] Statistics: 68607 bytes read, 0 seeks
[image2 @ 00000203ad4cecc0] Opening 'C:/Users/Raq/Desktop/mirkan projects/solanaDrink/static/gif/frame0014.png' for reading
[file @ 00000203ad4d2940] Setting default whitelist 'file,crypto,data'
[AVIOContext @ 00000203ad4d4540] Statistics: 68607 bytes read, 0 seeks
[image2 @ 00000203ad4cecc0] Opening 'C:/Users/Raq/Desktop/mirkan projects/solanaDrink/static/gif/frame0015.png' for reading
[file @ 00000203ad4d2940] Setting default whitelist 'file,crypto,data'
[AVIOContext @ 00000203ad4d4540] Statistics: 68607 bytes read, 0 seeks
[image2 @ 00000203ad4cecc0] Opening 'C:/Users/Raq/Desktop/mirkan projects/solanaDrink/static/gif/frame0016.png' for reading
[file @ 00000203ad4d2940] Setting default whitelist 'file,crypto,data'
[AVIOContext @ 00000203ad4d4540] Statistics: 68607 bytes read, 0 seeks
[image2 @ 00000203ad4cecc0] Opening 'C:/Users/Raq/Desktop/mirkan projects/solanaDrink/static/gif/frame0017.png' for reading
[file @ 00000203ad4d2940] Setting default whitelist 'file,crypto,data'
[AVIOContext @ 00000203ad4d4540] Statistics: 68607 bytes read, 0 seeks
[image2 @ 00000203ad4cecc0] Opening 'C:/Users/Raq/Desktop/mirkan projects/solanaDrink/static/gif/frame0018.png' for reading
[file @ 00000203ad4d2940] Setting default whitelist 'file,crypto,data'
[AVIOContext @ 00000203ad4d4540] Statistics: 68607 bytes read, 0 seeks
[image2 @ 00000203ad4cecc0] Opening 'C:/Users/Raq/Desktop/mirkan projects/solanaDrink/static/gif/frame0019.png' for reading
[file @ 00000203ad4d2940] Setting default whitelist 'file,crypto,data'
[AVIOContext @ 00000203ad4d4540] Statistics: 68607 bytes read, 0 seeks
[image2 @ 00000203ad4cecc0] Opening 'C:/Users/Raq/Desktop/mirkan projects/solanaDrink/static/gif/frame0020.png' for reading
[file @ 00000203ad4d2940] Setting default whitelist 'file,crypto,data'
[AVIOContext @ 00000203ad4d4540] Statistics: 47683 bytes read, 0 seeks
[image2 @ 00000203ad4cecc0] Opening 'C:/Users/Raq/Desktop/mirkan projects/solanaDrink/static/gif/frame0021.png' for reading
[file @ 00000203ad4d2940] Setting default whitelist 'file,crypto,data'
[AVIOContext @ 00000203ad4d4540] Statistics: 47683 bytes read, 0 seeks
[image2 @ 00000203ad4cecc0] Opening 'C:/Users/Raq/Desktop/mirkan projects/solanaDrink/static/gif/frame0022.png' for reading
[file @ 00000203ad4d2940] Setting default whitelist 'file,crypto,data'
[AVIOContext @ 00000203ad4d4540] Statistics: 47683 bytes read, 0 seeks
[image2 @ 00000203ad4cecc0] Opening 'C:/Users/Raq/Desktop/mirkan projects/solanaDrink/static/gif/frame0023.png' for reading
[file @ 00000203ad4d2940] Setting default whitelist 'file,crypto,data'
[AVIOContext @ 00000203ad4d4540] Statistics: 47683 bytes read, 0 seeks
[image2 @ 00000203ad4cecc0] Opening 'C:/Users/Raq/Desktop/mirkan projects/solanaDrink/static/gif/frame0024.png' for reading
[file @ 00000203ad4d2940] Setting default whitelist 'file,crypto,data'
[AVIOContext @ 00000203ad4d4540] Statistics: 47683 bytes read, 0 seeks
[image2 @ 00000203ad4cecc0] Opening 'C:/Users/Raq/Desktop/mirkan projects/solanaDrink/static/gif/frame0025.png' for reading
[file @ 00000203ad4d2940] Setting default whitelist 'file,crypto,data'
[AVIOContext @ 00000203ad4d4540] Statistics: 47683 bytes read, 0 seeks
[image2 @ 00000203ad4cecc0] Opening 'C:/Users/Raq/Desktop/mirkan projects/solanaDrink/static/gif/frame0026.png' for reading
[file @ 00000203ad4d2940] Setting default whitelist 'file,crypto,data'
[AVIOContext @ 00000203ad4d4540] Statistics: 47683 bytes read, 0 seeks
[image2 @ 00000203ad4cecc0] Opening 'C:/Users/Raq/Desktop/mirkan projects/solanaDrink/static/gif/frame0027.png' for reading
[file @ 00000203ad4d2940] Setting default whitelist 'file,crypto,data'
[AVIOContext @ 00000203ad4d4540] Statistics: 47683 bytes read, 0 seeks
[image2 @ 00000203ad4cecc0] Opening 'C:/Users/Raq/Desktop/mirkan projects/solanaDrink/static/gif/frame0028.png' for reading
[file @ 00000203ad4d2940] Setting default whitelist 'file,crypto,data'
[AVIOContext @ 00000203ad4d4540] Statistics: 47683 bytes read, 0 seeks
[image2 @ 00000203ad4cecc0] Opening 'C:/Users/Raq/Desktop/mirkan projects/solanaDrink/static/gif/frame0029.png' for reading
[file @ 00000203ad4d2940] Setting default whitelist 'file,crypto,data'
[AVIOContext @ 00000203ad4d4540] Statistics: 47683 bytes read, 0 seeks
[image2 @ 00000203ad4cecc0] Opening 'C:/Users/Raq/Desktop/mirkan projects/solanaDrink/static/gif/frame0030.png' for reading
[file @ 00000203ad4d2940] Setting default whitelist 'file,crypto,data'
[AVIOContext @ 00000203ad4d4540] Statistics: 49034 bytes read, 0 seeks
[image2 @ 00000203ad4cecc0] Opening 'C:/Users/Raq/Desktop/mirkan projects/solanaDrink/static/gif/frame0031.png' for reading
[file @ 00000203ad4d2940] Setting default whitelist 'file,crypto,data'
[AVIOContext @ 00000203ad4d4540] Statistics: 49034 bytes read, 0 seeks
[image2 @ 00000203ad4cecc0] Opening 'C:/Users/Raq/Desktop/mirkan projects/solanaDrink/static/gif/frame0032.png' for reading
[file @ 00000203ad4d2940] Setting default whitelist 'file,crypto,data'
[AVIOContext @ 00000203ad4d4540] Statistics: 49034 bytes read, 0 seeks
[image2 @ 00000203ad4cecc0] Opening 'C:/Users/Raq/Desktop/mirkan projects/solanaDrink/static/gif/frame0033.png' for reading
[file @ 00000203ad4d2940] Setting default whitelist 'file,crypto,data'
[AVIOContext @ 00000203ad4d4540] Statistics: 49034 bytes read, 0 seeks
[image2 @ 00000203ad4cecc0] Opening 'C:/Users/Raq/Desktop/mirkan projects/solanaDrink/static/gif/frame0034.png' for reading
[file @ 00000203ad4d2940] Setting default whitelist 'file,crypto,data'
[AVIOContext @ 00000203ad4d4540] Statistics: 49034 bytes read, 0 seeks
[image2 @ 00000203ad4cecc0] Opening 'C:/Users/Raq/Desktop/mirkan projects/solanaDrink/static/gif/frame0035.png' for reading
[file @ 00000203ad4d2940] Setting default whitelist 'file,crypto,data'
[AVIOContext @ 00000203ad4d4540] Statistics: 49034 bytes read, 0 seeks
[image2 @ 00000203ad4cecc0] Opening 'C:/Users/Raq/Desktop/mirkan projects/solanaDrink/static/gif/frame0036.png' for reading
[file @ 00000203ad4d2940] Setting default whitelist 'file,crypto,data'
[AVIOContext @ 00000203ad4d4540] Statistics: 49034 bytes read, 0 seeks
[image2 @ 00000203ad4cecc0] Opening 'C:/Users/Raq/Desktop/mirkan projects/solanaDrink/static/gif/frame0037.png' for reading
[file @ 00000203ad4d2940] Setting default whitelist 'file,crypto,data'
[AVIOContext @ 00000203ad4d4540] Statistics: 49034 bytes read, 0 seeks
[image2 @ 00000203ad4cecc0] Opening 'C:/Users/Raq/Desktop/mirkan projects/solanaDrink/static/gif/frame0038.png' for reading
[file @ 00000203ad4d2940] Setting default whitelist 'file,crypto,data'
[AVIOContext @ 00000203ad4d4540] Statistics: 49034 bytes read, 0 seeks
[image2 @ 00000203ad4cecc0] Opening 'C:/Users/Raq/Desktop/mirkan projects/solanaDrink/static/gif/frame0039.png' for reading
[file @ 00000203ad4d2940] Setting default whitelist 'file,crypto,data'
[AVIOContext @ 00000203ad4d4540] Statistics: 49034 bytes read, 0 seeks
[image2 @ 00000203ad4cecc0] Opening 'C:/Users/Raq/Desktop/mirkan projects/solanaDrink/static/gif/frame0040.png' for reading
[file @ 00000203ad4d2940] Setting default whitelist 'file,crypto,data'
[AVIOContext @ 00000203ad4d4540] Statistics: 44081 bytes read, 0 seeks
[image2 @ 00000203ad4cecc0] Opening 'C:/Users/Raq/Desktop/mirkan projects/solanaDrink/static/gif/frame0041.png' for reading
[file @ 00000203ad4d2940] Setting default whitelist 'file,crypto,data'
[AVIOContext @ 00000203ad4d4540] Statistics: 44081 bytes read, 0 seeks
[image2 @ 00000203ad4cecc0] Opening 'C:/Users/Raq/Desktop/mirkan projects/solanaDrink/static/gif/frame0042.png' for reading
[file @ 00000203ad4d2940] Setting default whitelist 'file,crypto,data'
[AVIOContext @ 00000203ad4d4540] Statistics: 44081 bytes read, 0 seeks
[image2 @ 00000203ad4cecc0] Opening 'C:/Users/Raq/Desktop/mirkan projects/solanaDrink/static/gif/frame0043.png' for reading
[file @ 00000203ad4d2940] Setting default whitelist 'file,crypto,data'
[AVIOContext @ 00000203ad4d4540] Statistics: 44081 bytes read, 0 seeks
[image2 @ 00000203ad4cecc0] Opening 'C:/Users/Raq/Desktop/mirkan projects/solanaDrink/static/gif/frame0044.png' for reading
[file @ 00000203ad4d2940] Setting default whitelist 'file,crypto,data'
[AVIOContext @ 00000203ad4d4540] Statistics: 44081 bytes read, 0 seeks
[image2 @ 00000203ad4cecc0] Opening 'C:/Users/Raq/Desktop/mirkan projects/solanaDrink/static/gif/frame0045.png' for reading
[file @ 00000203ad4d2940] Setting default whitelist 'file,crypto,data'
[AVIOContext @ 00000203ad4d4540] Statistics: 44081 bytes read, 0 seeks
[image2 @ 00000203ad4cecc0] Opening 'C:/Users/Raq/Desktop/mirkan projects/solanaDrink/static/gif/frame0046.png' for reading
[file @ 00000203ad4d2940] Setting default whitelist 'file,crypto,data'
[AVIOContext @ 00000203ad4d4540] Statistics: 44081 bytes read, 0 seeks
[image2 @ 00000203ad4cecc0] Opening 'C:/Users/Raq/Desktop/mirkan projects/solanaDrink/static/gif/frame0047.png' for reading
[file @ 00000203ad4d2940] Setting default whitelist 'file,crypto,data'
[AVIOContext @ 00000203ad4d4540] Statistics: 44081 bytes read, 0 seeks
[image2 @ 00000203ad4cecc0] Opening 'C:/Users/Raq/Desktop/mirkan projects/solanaDrink/static/gif/frame0048.png' for reading
[file @ 00000203ad4d2940] Setting default whitelist 'file,crypto,data'
[AVIOContext @ 00000203ad4d4540] Statistics: 44081 bytes read, 0 seeks
[image2 @ 00000203ad4cecc0] Opening 'C:/Users/Raq/Desktop/mirkan projects/solanaDrink/static/gif/frame0049.png' for reading
[file @ 00000203ad4d2940] Setting default whitelist 'file,crypto,data'
[AVIOContext @ 00000203ad4d4540] Statistics: 44081 bytes read, 0 seeks
[image2 @ 00000203ad4cecc0] Opening 'C:/Users/Raq/Desktop/mirkan projects/solanaDrink/static/gif/frame0050.png' for reading
[file @ 00000203ad4d2940] Setting default whitelist 'file,crypto,data'
[AVIOContext @ 00000203ad4d4540] Statistics: 38435 bytes read, 0 seeks
[image2 @ 00000203ad4cecc0] Opening 'C:/Users/Raq/Desktop/mirkan projects/solanaDrink/static/gif/frame0051.png' for reading
[file @ 00000203ad4d2940] Setting default whitelist 'file,crypto,data'
[AVIOContext @ 00000203ad4d4540] Statistics: 38435 bytes read, 0 seeks
[image2 @ 00000203ad4cecc0] Opening 'C:/Users/Raq/Desktop/mirkan projects/solanaDrink/static/gif/frame0052.png' for reading
[file @ 00000203ad4d2940] Setting default whitelist 'file,crypto,data'
[AVIOContext @ 00000203ad4d4540] Statistics: 38435 bytes read, 0 seeks
[image2 @ 00000203ad4cecc0] Opening 'C:/Users/Raq/Desktop/mirkan projects/solanaDrink/static/gif/frame0053.png' for reading
[file @ 00000203ad4d2940] Setting default whitelist 'file,crypto,data'
[AVIOContext @ 00000203ad4d4540] Statistics: 38435 bytes read, 0 seeks
[image2 @ 00000203ad4cecc0] Opening 'C:/Users/Raq/Desktop/mirkan projects/solanaDrink/static/gif/frame0054.png' for reading
[file @ 00000203ad4d2940] Setting default whitelist 'file,crypto,data'
[AVIOContext @ 00000203ad4d4540] Statistics: 38435 bytes read, 0 seeks
[image2 @ 00000203ad4cecc0] Opening 'C:/Users/Raq/Desktop/mirkan projects/solanaDrink/static/gif/frame0055.png' for reading
[file @ 00000203ad4d2940] Setting default whitelist 'file,crypto,data'
[AVIOContext @ 00000203ad4d4540] Statistics: 38435 bytes read, 0 seeks
[image2 @ 00000203ad4cecc0] Opening 'C:/Users/Raq/Desktop/mirkan projects/solanaDrink/static/gif/frame0056.png' for reading
[file @ 00000203ad4d2940] Setting default whitelist 'file,crypto,data'
[AVIOContext @ 00000203ad4d4540] Statistics: 38435 bytes read, 0 seeks
[image2 @ 00000203ad4cecc0] Opening 'C:/Users/Raq/Desktop/mirkan projects/solanaDrink/static/gif/frame0057.png' for reading
[file @ 00000203ad4d2940] Setting default whitelist 'file,crypto,data'
[AVIOContext @ 00000203ad4d4540] Statistics: 38435 bytes read, 0 seeks
[image2 @ 00000203ad4cecc0] Opening 'C:/Users/Raq/Desktop/mirkan projects/solanaDrink/static/gif/frame0058.png' for reading
[file @ 00000203ad4d2940] Setting default whitelist 'file,crypto,data'
[AVIOContext @ 00000203ad4da940] Statistics: 38435 bytes read, 0 seeks
[image2 @ 00000203ad4cecc0] Opening 'C:/Users/Raq/Desktop/mirkan projects/solanaDrink/static/gif/frame0059.png' for reading
[file @ 00000203ad4d2940] Setting default whitelist 'file,crypto,data'
[AVIOContext @ 00000203ad4da940] Statistics: 38435 bytes read, 0 seeks
[image2 @ 00000203ad4cecc0] Opening 'C:/Users/Raq/Desktop/mirkan projects/solanaDrink/static/gif/frame0060.png' for reading
[file @ 00000203ad4d2940] Setting default whitelist 'file,crypto,data'
[AVIOContext @ 00000203ad4da940] Statistics: 50335 bytes read, 0 seeks
[image2 @ 00000203ad4cecc0] Opening 'C:/Users/Raq/Desktop/mirkan projects/solanaDrink/static/gif/frame0061.png' for reading
[file @ 00000203ad4d2940] Setting default whitelist 'file,crypto,data'
[AVIOContext @ 00000203ad4da940] Statistics: 50335 bytes read, 0 seeks
[image2 @ 00000203ad4cecc0] Opening 'C:/Users/Raq/Desktop/mirkan projects/solanaDrink/static/gif/frame0062.png' for reading
[file @ 00000203ad4d2940] Setting default whitelist 'file,crypto,data'
[AVIOContext @ 00000203ad4da940] Statistics: 50335 bytes read, 0 seeks
[image2 @ 00000203ad4cecc0] Opening 'C:/Users/Raq/Desktop/mirkan projects/solanaDrink/static/gif/frame0063.png' for reading
[file @ 00000203ad4d2940] Setting default whitelist 'file,crypto,data'
[AVIOContext @ 00000203ad4da940] Statistics: 50335 bytes read, 0 seeks
[image2 @ 00000203ad4cecc0] Opening 'C:/Users/Raq/Desktop/mirkan projects/solanaDrink/static/gif/frame0064.png' for reading
[file @ 00000203ad4d2940] Setting default whitelist 'file,crypto,data'
[AVIOContext @ 00000203ad4da940] Statistics: 50335 bytes read, 0 seeks
[image2 @ 00000203ad4cecc0] Opening 'C:/Users/Raq/Desktop/mirkan projects/solanaDrink/static/gif/frame0065.png' for reading
[file @ 00000203ad4d2940] Setting default whitelist 'file,crypto,data'
[AVIOContext @ 00000203ad4da940] Statistics: 50335 bytes read, 0 seeks
[image2 @ 00000203ad4cecc0] Opening 'C:/Users/Raq/Desktop/mirkan projects/solanaDrink/static/gif/frame0066.png' for reading
[file @ 00000203ad4d2940] Setting default whitelist 'file,crypto,data'
[AVIOContext @ 00000203ad4da940] Statistics: 50335 bytes read, 0 seeks
[image2 @ 00000203ad4cecc0] Opening 'C:/Users/Raq/Desktop/mirkan projects/solanaDrink/static/gif/frame0067.png' for reading
[file @ 00000203ad4d2940] Setting default whitelist 'file,crypto,data'
[AVIOContext @ 00000203ad4da940] Statistics: 50335 bytes read, 0 seeks
[image2 @ 00000203ad4cecc0] Opening 'C:/Users/Raq/Desktop/mirkan projects/solanaDrink/static/gif/frame0068.png' for reading
[file @ 00000203ad4d2940] Setting default whitelist 'file,crypto,data'
[AVIOContext @ 00000203ad4da940] Statistics: 50335 bytes read, 0 seeks
[image2 @ 00000203ad4cecc0] Opening 'C:/Users/Raq/Desktop/mirkan projects/solanaDrink/static/gif/frame0069.png' for reading
[file @ 00000203ad4d2940] Setting default whitelist 'file,crypto,data'
[AVIOContext @ 00000203ad4da940] Statistics: 50335 bytes read, 0 seeks
[image2 @ 00000203ad4cecc0] Opening 'C:/Users/Raq/Desktop/mirkan projects/solanaDrink/static/gif/frame0070.png' for reading
[file @ 00000203ad4d2940] Setting default whitelist 'file,crypto,data'
[AVIOContext @ 00000203ad4da940] Statistics: 53265 bytes read, 0 seeks
[image2 @ 00000203ad4cecc0] Opening 'C:/Users/Raq/Desktop/mirkan projects/solanaDrink/static/gif/frame0071.png' for reading
[file @ 00000203ad4d2940] Setting default whitelist 'file,crypto,data'
[AVIOContext @ 00000203ad4da940] Statistics: 53265 bytes read, 0 seeks
[image2 @ 00000203ad4cecc0] Opening 'C:/Users/Raq/Desktop/mirkan projects/solanaDrink/static/gif/frame0072.png' for reading
[file @ 00000203ad4d2940] Setting default whitelist 'file,crypto,data'
[AVIOContext @ 00000203ad4da940] Statistics: 53265 bytes read, 0 seeks
[image2 @ 00000203ad4cecc0] Opening 'C:/Users/Raq/Desktop/mirkan projects/solanaDrink/static/gif/frame0073.png' for reading
[file @ 00000203ad4d2940] Setting default whitelist 'file,crypto,data'
[AVIOContext @ 00000203ad4da940] Statistics: 53265 bytes read, 0 seeks
[image2 @ 00000203ad4cecc0] Opening 'C:/Users/Raq/Desktop/mirkan projects/solanaDrink/static/gif/frame0074.png' for reading
[file @ 00000203ad4d2940] Setting default whitelist 'file,crypto,data'
[AVIOContext @ 00000203ad4da940] Statistics: 53265 bytes read, 0 seeks
[image2 @ 00000203ad4cecc0] Opening 'C:/Users/Raq/Desktop/mirkan projects/solanaDrink/static/gif/frame0075.png' for reading
[file @ 00000203ad4d2940] Setting default whitelist 'file,crypto,data'
[AVIOContext @ 00000203ad4da940] Statistics: 53265 bytes read, 0 seeks
[image2 @ 00000203ad4cecc0] Opening 'C:/Users/Raq/Desktop/mirkan projects/solanaDrink/static/gif/frame0076.png' for reading
[file @ 00000203ad4d2940] Setting default whitelist 'file,crypto,data'
[AVIOContext @ 00000203ad4da940] Statistics: 53265 bytes read, 0 seeks
[image2 @ 00000203ad4cecc0] Opening 'C:/Users/Raq/Desktop/mirkan projects/solanaDrink/static/gif/frame0077.png' for reading
[file @ 00000203ad4d2940] Setting default whitelist 'file,crypto,data'
[AVIOContext @ 00000203ad4da940] Statistics: 53265 bytes read, 0 seeks
[image2 @ 00000203ad4cecc0] Opening 'C:/Users/Raq/Desktop/mirkan projects/solanaDrink/static/gif/frame0078.png' for reading
[file @ 00000203ad4d2940] Setting default whitelist 'file,crypto,data'
[AVIOContext @ 00000203ad4da940] Statistics: 53265 bytes read, 0 seeks
[image2 @ 00000203ad4cecc0] Opening 'C:/Users/Raq/Desktop/mirkan projects/solanaDrink/static/gif/frame0079.png' for reading
[file @ 00000203ad4d2940] Setting default whitelist 'file,crypto,data'
[AVIOContext @ 00000203ad4da940] Statistics: 53265 bytes read, 0 seeks
[image2 @ 00000203ad4cecc0] Opening 'C:/Users/Raq/Desktop/mirkan projects/solanaDrink/static/gif/frame0080.png' for reading
[file @ 00000203ad4d2940] Setting default whitelist 'file,crypto,data'
[AVIOContext @ 00000203ad4da940] Statistics: 54347 bytes read, 0 seeks
[image2 @ 00000203ad4cecc0] Opening 'C:/Users/Raq/Desktop/mirkan projects/solanaDrink/static/gif/frame0081.png' for reading
[file @ 00000203ad4d2940] Setting default whitelist 'file,crypto,data'
[AVIOContext @ 00000203ad4da940] Statistics: 54347 bytes read, 0 seeks
[image2 @ 00000203ad4cecc0] Opening 'C:/Users/Raq/Desktop/mirkan projects/solanaDrink/static/gif/frame0082.png' for reading
[file @ 00000203ad4d2940] Setting default whitelist 'file,crypto,data'
[AVIOContext @ 00000203ad4da940] Statistics: 54347 bytes read, 0 seeks
[image2 @ 00000203ad4cecc0] Opening 'C:/Users/Raq/Desktop/mirkan projects/solanaDrink/static/gif/frame0083.png' for reading
[file @ 00000203ad4d2940] Setting default whitelist 'file,crypto,data'
[AVIOContext @ 00000203ad4da940] Statistics: 54347 bytes read, 0 seeks
[image2 @ 00000203ad4cecc0] Opening 'C:/Users/Raq/Desktop/mirkan projects/solanaDrink/static/gif/frame0084.png' for reading
[file @ 00000203ad4d2940] Setting default whitelist 'file,crypto,data'
[AVIOContext @ 00000203ad4da940] Statistics: 54347 bytes read, 0 seeks
[image2 @ 00000203ad4cecc0] Opening 'C:/Users/Raq/Desktop/mirkan projects/solanaDrink/static/gif/frame0085.png' for reading
[file @ 00000203ad4d2940] Setting default whitelist 'file,crypto,data'
[AVIOContext @ 00000203ad4da940] Statistics: 54347 bytes read, 0 seeks
[image2 @ 00000203ad4cecc0] Opening 'C:/Users/Raq/Desktop/mirkan projects/solanaDrink/static/gif/frame0086.png' for reading
[file @ 00000203ad4d2940] Setting default whitelist 'file,crypto,data'
[AVIOContext @ 00000203ad4da940] Statistics: 54347 bytes read, 0 seeks
[image2 @ 00000203ad4cecc0] Opening 'C:/Users/Raq/Desktop/mirkan projects/solanaDrink/static/gif/frame0087.png' for reading
[file @ 00000203ad4d2940] Setting default whitelist 'file,crypto,data'
[AVIOContext @ 00000203ad4da940] Statistics: 54347 bytes read, 0 seeks
[image2 @ 00000203ad4cecc0] Opening 'C:/Users/Raq/Desktop/mirkan projects/solanaDrink/static/gif/frame0088.png' for reading
[file @ 00000203ad4d2940] Setting default whitelist 'file,crypto,data'
[AVIOContext @ 00000203ad4da940] Statistics: 54347 bytes read, 0 seeks
[image2 @ 00000203ad4cecc0] Opening 'C:/Users/Raq/Desktop/mirkan projects/solanaDrink/static/gif/frame0089.png' for reading
[file @ 00000203ad4d2940] Setting default whitelist 'file,crypto,data'
[AVIOContext @ 00000203ad4da940] Statistics: 54347 bytes read, 0 seeks
[image2 @ 00000203ad4cecc0] Opening 'C:/Users/Raq/Desktop/mirkan projects/solanaDrink/static/gif/frame0090.png' for reading
[file @ 00000203ad4d2940] Setting default whitelist 'file,crypto,data'
[AVIOContext @ 00000203ad4da940] Statistics: 42597 bytes read, 0 seeks
[image2 @ 00000203ad4cecc0] Opening 'C:/Users/Raq/Desktop/mirkan projects/solanaDrink/static/gif/frame0091.png' for reading
[file @ 00000203ad4d2940] Setting default whitelist 'file,crypto,data'
[AVIOContext @ 00000203ad4da940] Statistics: 42597 bytes read, 0 seeks
[image2 @ 00000203ad4cecc0] Opening 'C:/Users/Raq/Desktop/mirkan projects/solanaDrink/static/gif/frame0092.png' for reading
[file @ 00000203ad4d2940] Setting default whitelist 'file,crypto,data'
[AVIOContext @ 00000203ad4da940] Statistics: 42597 bytes read, 0 seeks
[image2 @ 00000203ad4cecc0] Opening 'C:/Users/Raq/Desktop/mirkan projects/solanaDrink/static/gif/frame0093.png' for reading
[file @ 00000203ad4d2940] Setting default whitelist 'file,crypto,data'
[AVIOContext @ 00000203ad4da940] Statistics: 42597 bytes read, 0 seeks
[image2 @ 00000203ad4cecc0] Opening 'C:/Users/Raq/Desktop/mirkan projects/solanaDrink/static/gif/frame0094.png' for reading
[file @ 00000203ad4d2940] Setting default whitelist 'file,crypto,data'
[AVIOContext @ 00000203ad4da940] Statistics: 42597 bytes read, 0 seeks
[image2 @ 00000203ad4cecc0] Opening 'C:/Users/Raq/Desktop/mirkan projects/solanaDrink/static/gif/frame0095.png' for reading
[file @ 00000203ad4d2940] Setting default whitelist 'file,crypto,data'
[AVIOContext @ 00000203ad4da940] Statistics: 42597 bytes read, 0 seeks
[image2 @ 00000203ad4cecc0] Opening 'C:/Users/Raq/Desktop/mirkan projects/solanaDrink/static/gif/frame0096.png' for reading
[file @ 00000203ad4d2940] Setting default whitelist 'file,crypto,data'
[AVIOContext @ 00000203ad4da940] Statistics: 42597 bytes read, 0 seeks
[image2 @ 00000203ad4cecc0] Probe buffer size limit of 5000000 bytes reached
Input #0, image2, from 'C:/Users/Raq/Desktop/mirkan projects/solanaDrink/static/gif/frame%04d.png':
  Duration: 00:00:06.44, start: 0.000000, bitrate: N/A
  Stream #0:0, 97, 1/25: Video: png, 1 reference frame, rgba(pc), 1080x1080 [SAR 11811:11811 DAR 1:1], 0/1, 25 fps, 25 tbr, 25 tbn, 25 tbc
Successfully opened the file.
Parsing a group of options: output url C:/Users/Raq/Desktop/mirkan projects/solanaDrink/static/gif/palette.png.
Applying option vf (set video filters) with argument palettegen.
Successfully parsed a group of options.
Opening an output file: C:/Users/Raq/Desktop/mirkan projects/solanaDrink/static/gif/palette.png.
Successfully opened the file.
detected 12 logical cores
Stream mapping:
  Stream #0:0 -> #0:0 (png (native) -> png (native))
cur_dts is invalid st:0 (0) [init:0 i_done:0 finish:0] (this is harmless if it occurs once at the start per stream)
    Last message repeated 12 times
[graph 0 input from stream 0:0 @ 00000203ad4d2c00] Setting 'video_size' to value '1080x1080'
[graph 0 input from stream 0:0 @ 00000203ad4d2c00] Setting 'pix_fmt' to value '26'
[graph 0 input from stream 0:0 @ 00000203ad4d2c00] Setting 'time_base' to value '1/24'
[graph 0 input from stream 0:0 @ 00000203ad4d2c00] Setting 'pixel_aspect' to value '11811/11811'
[graph 0 input from stream 0:0 @ 00000203ad4d2c00] Setting 'frame_rate' to value '24/1'
[graph 0 input from stream 0:0 @ 00000203ad4d2c00] w:1080 h:1080 pixfmt:rgba tb:1/24 fr:24/1 sar:11811/11811
[format @ 00000203ad4d3100] Setting 'pix_fmts' to value 'rgb24|rgba|rgb48be|rgba64be|pal8|gray|ya8|gray16be|ya16be|monob'
[auto_scaler_0 @ 00000203adeac240] Setting 'flags' to value 'bicubic'
[auto_scaler_0 @ 00000203adeac240] w:iw h:ih flags:'bicubic' interl:0
[Parsed_palettegen_0 @ 00000203ab697c00] auto-inserting filter 'auto_scaler_0' between the filter 'graph 0 input from stream 0:0' and the filter 'Parsed_palettegen_0'
[auto_scaler_1 @ 00000203adeab040] Setting 'flags' to value 'bicubic'
[auto_scaler_1 @ 00000203adeab040] w:iw h:ih flags:'bicubic' interl:0
[format @ 00000203ad4d3100] auto-inserting filter 'auto_scaler_1' between the filter 'Parsed_palettegen_0' and the filter 'format'
[AVFilterGraph @ 00000203ada02800] query_formats: 4 queried, 1 merged, 2 already done, 0 delayed
[auto_scaler_1 @ 00000203adeab040] picking rgba out of 10 ref:bgra alpha:1
[swscaler @ 00000203adf6bf00] Forcing full internal H chroma due to input having non subsampled chroma
[auto_scaler_0 @ 00000203adeac240] w:1080 h:1080 fmt:rgba sar:11811/11811 -> w:1080 h:1080 fmt:bgra sar:1/1 flags:0x4
[swscaler @ 00000203adf8d240] Forcing full internal H chroma due to input having non subsampled chroma
[auto_scaler_1 @ 00000203adeab040] w:16 h:16 fmt:bgra sar:1/1 -> w:16 h:16 fmt:rgba sar:1/1 flags:0x4
cur_dts is invalid st:0 (0) [init:0 i_done:0 finish:0] (this is harmless if it occurs once at the start per stream)
    Last message repeated 84 times
[image2 @ 00000203ad4cecc0] Opening 'C:/Users/Raq/Desktop/mirkan projects/solanaDrink/static/gif/frame0097.png' for reading
[file @ 00000203adeab440] Setting default whitelist 'file,crypto,data'
[AVIOContext @ 00000203adecfd80] Statistics: 42597 bytes read, 0 seeks
cur_dts is invalid st:0 (0) [init:0 i_done:0 finish:0] (this is harmless if it occurs once at the start per stream)
[image2 @ 00000203ad4cecc0] Opening 'C:/Users/Raq/Desktop/mirkan projects/solanaDrink/static/gif/frame0098.png' for reading
[file @ 00000203adeabe40] Setting default whitelist 'file,crypto,data'
[AVIOContext @ 00000203adecf840] Statistics: 42597 bytes read, 0 seeks
cur_dts is invalid st:0 (0) [init:0 i_done:0 finish:0] (this is harmless if it occurs once at the start per stream)
[image2 @ 00000203ad4cecc0] Opening 'C:/Users/Raq/Desktop/mirkan projects/solanaDrink/static/gif/frame0099.png' for reading
[file @ 00000203adeaa840] Setting default whitelist 'file,crypto,data'
[AVIOContext @ 00000203adecf840] Statistics: 42597 bytes read, 0 seeks
cur_dts is invalid st:0 (0) [init:0 i_done:0 finish:0] (this is harmless if it occurs once at the start per stream)
[image2 @ 00000203ad4cecc0] Opening 'C:/Users/Raq/Desktop/mirkan projects/solanaDrink/static/gif/frame0100.png' for reading
[file @ 00000203adeac040] Setting default whitelist 'file,crypto,data'
[AVIOContext @ 00000203adecf840] Statistics: 68393 bytes read, 0 seeks
cur_dts is invalid st:0 (0) [init:0 i_done:0 finish:0] (this is harmless if it occurs once at the start per stream)
[image2 @ 00000203ad4cecc0] Opening 'C:/Users/Raq/Desktop/mirkan projects/solanaDrink/static/gif/frame0101.png' for reading
[file @ 00000203adeab140] Setting default whitelist 'file,crypto,data'
[AVIOContext @ 00000203adecfd80] Statistics: 68393 bytes read, 0 seeks
cur_dts is invalid st:0 (0) [init:0 i_done:0 finish:0] (this is harmless if it occurs once at the start per stream)
[image2 @ 00000203ad4cecc0] Opening 'C:/Users/Raq/Desktop/mirkan projects/solanaDrink/static/gif/frame0102.png' for reading
[file @ 00000203adeac340] Setting default whitelist 'file,crypto,data'
[AVIOContext @ 00000203adecf840] Statistics: 68393 bytes read, 0 seeks
cur_dts is invalid st:0 (0) [init:0 i_done:0 finish:0] (this is harmless if it occurs once at the start per stream)
[image2 @ 00000203ad4cecc0] Opening 'C:/Users/Raq/Desktop/mirkan projects/solanaDrink/static/gif/frame0103.png' for reading
[file @ 00000203adeab440] Setting default whitelist 'file,crypto,data'
[AVIOContext @ 00000203adecfd80] Statistics: 68393 bytes read, 0 seeks
cur_dts is invalid st:0 (0) [init:0 i_done:0 finish:0] (this is harmless if it occurs once at the start per stream)
[image2 @ 00000203ad4cecc0] Opening 'C:/Users/Raq/Desktop/mirkan projects/solanaDrink/static/gif/frame0104.png' for reading
[file @ 00000203adeaae40] Setting default whitelist 'file,crypto,data'
[AVIOContext @ 00000203adecfd80] Statistics: 68393 bytes read, 0 seeks
cur_dts is invalid st:0 (0) [init:0 i_done:0 finish:0] (this is harmless if it occurs once at the start per stream)
[image2 @ 00000203ad4cecc0] Opening 'C:/Users/Raq/Desktop/mirkan projects/solanaDrink/static/gif/frame0105.png' for reading
[file @ 00000203adeabe40] Setting default whitelist 'file,crypto,data'
[AVIOContext @ 00000203adecfd80] Statistics: 68393 bytes read, 0 seeks
cur_dts is invalid st:0 (0) [init:0 i_done:0 finish:0] (this is harmless if it occurs once at the start per stream)
[image2 @ 00000203ad4cecc0] Opening 'C:/Users/Raq/Desktop/mirkan projects/solanaDrink/static/gif/frame0106.png' for reading
[file @ 00000203adeaba40] Setting default whitelist 'file,crypto,data'
[AVIOContext @ 00000203adecfd80] Statistics: 68393 bytes read, 0 seeks
cur_dts is invalid st:0 (0) [init:0 i_done:0 finish:0] (this is harmless if it occurs once at the start per stream)
[image2 @ 00000203ad4cecc0] Opening 'C:/Users/Raq/Desktop/mirkan projects/solanaDrink/static/gif/frame0107.png' for reading
[file @ 00000203adeab640] Setting default whitelist 'file,crypto,data'
[AVIOContext @ 00000203adecfd80] Statistics: 68393 bytes read, 0 seeks
cur_dts is invalid st:0 (0) [init:0 i_done:0 finish:0] (this is harmless if it occurs once at the start per stream)
[image2 @ 00000203ad4cecc0] Opening 'C:/Users/Raq/Desktop/mirkan projects/solanaDrink/static/gif/frame0108.png' for reading
[file @ 00000203adeab240] Setting default whitelist 'file,crypto,data'
[AVIOContext @ 00000203adecfd80] Statistics: 68393 bytes read, 0 seeks
cur_dts is invalid st:0 (0) [init:0 i_done:0 finish:0] (this is harmless if it occurs once at the start per stream)
[image2 @ 00000203ad4cecc0] Opening 'C:/Users/Raq/Desktop/mirkan projects/solanaDrink/static/gif/frame0109.png' for reading
[file @ 00000203adeaba40] Setting default whitelist 'file,crypto,data'
[AVIOContext @ 00000203adecfd80] Statistics: 68393 bytes read, 0 seeks
cur_dts is invalid st:0 (0) [init:0 i_done:0 finish:0] (this is harmless if it occurs once at the start per stream)
[image2 @ 00000203ad4cecc0] Opening 'C:/Users/Raq/Desktop/mirkan projects/solanaDrink/static/gif/frame0110.png' for reading
[file @ 00000203adeab840] Setting default whitelist 'file,crypto,data'
[AVIOContext @ 00000203adecfd80] Statistics: 59711 bytes read, 0 seeks
cur_dts is invalid st:0 (0) [init:0 i_done:0 finish:0] (this is harmless if it occurs once at the start per stream)
[image2 @ 00000203ad4cecc0] Opening 'C:/Users/Raq/Desktop/mirkan projects/solanaDrink/static/gif/frame0111.png' for reading
[file @ 00000203adeabb40] Setting default whitelist 'file,crypto,data'
[AVIOContext @ 00000203adecfd80] Statistics: 59711 bytes read, 0 seeks
cur_dts is invalid st:0 (0) [init:0 i_done:0 finish:0] (this is harmless if it occurs once at the start per stream)
[image2 @ 00000203ad4cecc0] Opening 'C:/Users/Raq/Desktop/mirkan projects/solanaDrink/static/gif/frame0112.png' for reading
[file @ 00000203adeac540] Setting default whitelist 'file,crypto,data'
[AVIOContext @ 00000203adecfd80] Statistics: 59711 bytes read, 0 seeks
cur_dts is invalid st:0 (0) [init:0 i_done:0 finish:0] (this is harmless if it occurs once at the start per stream)
[image2 @ 00000203ad4cecc0] Opening 'C:/Users/Raq/Desktop/mirkan projects/solanaDrink/static/gif/frame0113.png' for reading
[file @ 00000203adeac440] Setting default whitelist 'file,crypto,data'
[AVIOContext @ 00000203ada985c0] Statistics: 59711 bytes read, 0 seeks
cur_dts is invalid st:0 (0) [init:0 i_done:0 finish:0] (this is harmless if it occurs once at the start per stream)
[image2 @ 00000203ad4cecc0] Opening 'C:/Users/Raq/Desktop/mirkan projects/solanaDrink/static/gif/frame0114.png' for reading
[file @ 00000203adeab340] Setting default whitelist 'file,crypto,data'
[AVIOContext @ 00000203ada99ac0] Statistics: 59711 bytes read, 0 seeks
cur_dts is invalid st:0 (0) [init:0 i_done:0 finish:0] (this is harmless if it occurs once at the start per stream)
[image2 @ 00000203ad4cecc0] Opening 'C:/Users/Raq/Desktop/mirkan projects/solanaDrink/static/gif/frame0115.png' for reading
[file @ 00000203adeaab40] Setting default whitelist 'file,crypto,data'
[AVIOContext @ 00000203ada99c00] Statistics: 59711 bytes read, 0 seeks
cur_dts is invalid st:0 (0) [init:0 i_done:0 finish:0] (this is harmless if it occurs once at the start per stream)
[image2 @ 00000203ad4cecc0] Opening 'C:/Users/Raq/Desktop/mirkan projects/solanaDrink/static/gif/frame0116.png' for reading
[file @ 00000203adeabf40] Setting default whitelist 'file,crypto,data'
[AVIOContext @ 00000203ada981c0] Statistics: 59711 bytes read, 0 seeks
cur_dts is invalid st:0 (0) [init:0 i_done:0 finish:0] (this is harmless if it occurs once at the start per stream)
[image2 @ 00000203ad4cecc0] Opening 'C:/Users/Raq/Desktop/mirkan projects/solanaDrink/static/gif/frame0117.png' for reading
[file @ 00000203adeaa740] Setting default whitelist 'file,crypto,data'
[AVIOContext @ 00000203ada98340] Statistics: 59711 bytes read, 0 seeks
cur_dts is invalid st:0 (0) [init:0 i_done:0 finish:0] (this is harmless if it occurs once at the start per stream)
[image2 @ 00000203ad4cecc0] Opening 'C:/Users/Raq/Desktop/mirkan projects/solanaDrink/static/gif/frame0118.png' for reading
[file @ 00000203adeaae40] Setting default whitelist 'file,crypto,data'
[AVIOContext @ 00000203ada98340] Statistics: 59711 bytes read, 0 seeks
cur_dts is invalid st:0 (0) [init:0 i_done:0 finish:0] (this is harmless if it occurs once at the start per stream)
[image2 @ 00000203ad4cecc0] Opening 'C:/Users/Raq/Desktop/mirkan projects/solanaDrink/static/gif/frame0119.png' for reading
[file @ 00000203adeabf40] Setting default whitelist 'file,crypto,data'
[AVIOContext @ 00000203ada99180] Statistics: 59711 bytes read, 0 seeks
cur_dts is invalid st:0 (0) [init:0 i_done:0 finish:0] (this is harmless if it occurs once at the start per stream)
[image2 @ 00000203ad4cecc0] Opening 'C:/Users/Raq/Desktop/mirkan projects/solanaDrink/static/gif/frame0120.png' for reading
[file @ 00000203adeaba40] Setting default whitelist 'file,crypto,data'
[AVIOContext @ 00000203ada99580] Statistics: 68391 bytes read, 0 seeks
cur_dts is invalid st:0 (0) [init:0 i_done:0 finish:0] (this is harmless if it occurs once at the start per stream)
[image2 @ 00000203ad4cecc0] Opening 'C:/Users/Raq/Desktop/mirkan projects/solanaDrink/static/gif/frame0121.png' for reading
[file @ 00000203adeab140] Setting default whitelist 'file,crypto,data'
[AVIOContext @ 00000203ada985c0] Statistics: 68391 bytes read, 0 seeks
cur_dts is invalid st:0 (0) [init:0 i_done:0 finish:0] (this is harmless if it occurs once at the start per stream)
[image2 @ 00000203ad4cecc0] Opening 'C:/Users/Raq/Desktop/mirkan projects/solanaDrink/static/gif/frame0122.png' for reading
[file @ 00000203adeab140] Setting default whitelist 'file,crypto,data'
[AVIOContext @ 00000203ada98080] Statistics: 68391 bytes read, 0 seeks
cur_dts is invalid st:0 (0) [init:0 i_done:0 finish:0] (this is harmless if it occurs once at the start per stream)
[image2 @ 00000203ad4cecc0] Opening 'C:/Users/Raq/Desktop/mirkan projects/solanaDrink/static/gif/frame0123.png' for reading
[file @ 00000203adeaa940] Setting default whitelist 'file,crypto,data'
[AVIOContext @ 00000203ada99d80] Statistics: 68391 bytes read, 0 seeks
cur_dts is invalid st:0 (0) [init:0 i_done:0 finish:0] (this is harmless if it occurs once at the start per stream)
[image2 @ 00000203ad4cecc0] Opening 'C:/Users/Raq/Desktop/mirkan projects/solanaDrink/static/gif/frame0124.png' for reading
[file @ 00000203adeab440] Setting default whitelist 'file,crypto,data'
[AVIOContext @ 00000203ada98700] Statistics: 68391 bytes read, 0 seeks
cur_dts is invalid st:0 (0) [init:0 i_done:0 finish:0] (this is harmless if it occurs once at the start per stream)
[image2 @ 00000203ad4cecc0] Opening 'C:/Users/Raq/Desktop/mirkan projects/solanaDrink/static/gif/frame0125.png' for reading
[file @ 00000203adeac340] Setting default whitelist 'file,crypto,data'
[AVIOContext @ 00000203ada98080] Statistics: 68391 bytes read, 0 seeks
cur_dts is invalid st:0 (0) [init:0 i_done:0 finish:0] (this is harmless if it occurs once at the start per stream)
[image2 @ 00000203ad4cecc0] Opening 'C:/Users/Raq/Desktop/mirkan projects/solanaDrink/static/gif/frame0126.png' for reading
[file @ 00000203adeaac40] Setting default whitelist 'file,crypto,data'
[AVIOContext @ 00000203ada98080] Statistics: 68391 bytes read, 0 seeks
cur_dts is invalid st:0 (0) [init:0 i_done:0 finish:0] (this is harmless if it occurs once at the start per stream)
[image2 @ 00000203ad4cecc0] Opening 'C:/Users/Raq/Desktop/mirkan projects/solanaDrink/static/gif/frame0127.png' for reading
[file @ 00000203adeab140] Setting default whitelist 'file,crypto,data'
[AVIOContext @ 00000203ada981c0] Statistics: 68391 bytes read, 0 seeks
cur_dts is invalid st:0 (0) [init:0 i_done:0 finish:0] (this is harmless if it occurs once at the start per stream)
[image2 @ 00000203ad4cecc0] Opening 'C:/Users/Raq/Desktop/mirkan projects/solanaDrink/static/gif/frame0128.png' for reading
[file @ 00000203adeaaa40] Setting default whitelist 'file,crypto,data'
[AVIOContext @ 00000203ada996c0] Statistics: 68391 bytes read, 0 seeks
cur_dts is invalid st:0 (0) [init:0 i_done:0 finish:0] (this is harmless if it occurs once at the start per stream)
[image2 @ 00000203ad4cecc0] Opening 'C:/Users/Raq/Desktop/mirkan projects/solanaDrink/static/gif/frame0129.png' for reading
[file @ 00000203adeaaf40] Setting default whitelist 'file,crypto,data'
[AVIOContext @ 00000203ada996c0] Statistics: 68391 bytes read, 0 seeks
cur_dts is invalid st:0 (0) [init:0 i_done:0 finish:0] (this is harmless if it occurs once at the start per stream)
[image2 @ 00000203ad4cecc0] Opening 'C:/Users/Raq/Desktop/mirkan projects/solanaDrink/static/gif/frame0130.png' for reading
[file @ 00000203adeaad40] Setting default whitelist 'file,crypto,data'
[AVIOContext @ 00000203ada996c0] Statistics: 46541 bytes read, 0 seeks
cur_dts is invalid st:0 (0) [init:0 i_done:0 finish:0] (this is harmless if it occurs once at the start per stream)
[image2 @ 00000203ad4cecc0] Opening 'C:/Users/Raq/Desktop/mirkan projects/solanaDrink/static/gif/frame0131.png' for reading
[file @ 00000203adeab940] Setting default whitelist 'file,crypto,data'
[AVIOContext @ 00000203ada996c0] Statistics: 46541 bytes read, 0 seeks
cur_dts is invalid st:0 (0) [init:0 i_done:0 finish:0] (this is harmless if it occurs once at the start per stream)
[image2 @ 00000203ad4cecc0] Opening 'C:/Users/Raq/Desktop/mirkan projects/solanaDrink/static/gif/frame0132.png' for reading
[file @ 00000203adeabc40] Setting default whitelist 'file,crypto,data'
[AVIOContext @ 00000203ada98880] Statistics: 46541 bytes read, 0 seeks
cur_dts is invalid st:0 (0) [init:0 i_done:0 finish:0] (this is harmless if it occurs once at the start per stream)
[image2 @ 00000203ad4cecc0] Opening 'C:/Users/Raq/Desktop/mirkan projects/solanaDrink/static/gif/frame0133.png' for reading
[file @ 00000203adeaae40] Setting default whitelist 'file,crypto,data'
[AVIOContext @ 00000203ada98880] Statistics: 46541 bytes read, 0 seeks
cur_dts is invalid st:0 (0) [init:0 i_done:0 finish:0] (this is harmless if it occurs once at the start per stream)
[image2 @ 00000203ad4cecc0] Opening 'C:/Users/Raq/Desktop/mirkan projects/solanaDrink/static/gif/frame0134.png' for reading
[file @ 00000203adeabe40] Setting default whitelist 'file,crypto,data'
[AVIOContext @ 00000203ada98dc0] Statistics: 46541 bytes read, 0 seeks
cur_dts is invalid st:0 (0) [init:0 i_done:0 finish:0] (this is harmless if it occurs once at the start per stream)
[image2 @ 00000203ad4cecc0] Opening 'C:/Users/Raq/Desktop/mirkan projects/solanaDrink/static/gif/frame0135.png' for reading
[file @ 00000203adeaae40] Setting default whitelist 'file,crypto,data'
[AVIOContext @ 00000203ada98080] Statistics: 46541 bytes read, 0 seeks
cur_dts is invalid st:0 (0) [init:0 i_done:0 finish:0] (this is harmless if it occurs once at the start per stream)
[image2 @ 00000203ad4cecc0] Opening 'C:/Users/Raq/Desktop/mirkan projects/solanaDrink/static/gif/frame0136.png' for reading
[file @ 00000203adeab640] Setting default whitelist 'file,crypto,data'
[AVIOContext @ 00000203ada98f00] Statistics: 46541 bytes read, 0 seeks
cur_dts is invalid st:0 (0) [init:0 i_done:0 finish:0] (this is harmless if it occurs once at the start per stream)
[image2 @ 00000203ad4cecc0] Opening 'C:/Users/Raq/Desktop/mirkan projects/solanaDrink/static/gif/frame0137.png' for reading
[file @ 00000203adeab240] Setting default whitelist 'file,crypto,data'
[AVIOContext @ 00000203ada98080] Statistics: 46541 bytes read, 0 seeks
cur_dts is invalid st:0 (0) [init:0 i_done:0 finish:0] (this is harmless if it occurs once at the start per stream)
[image2 @ 00000203ad4cecc0] Opening 'C:/Users/Raq/Desktop/mirkan projects/solanaDrink/static/gif/frame0138.png' for reading
[file @ 00000203adeab140] Setting default whitelist 'file,crypto,data'
[AVIOContext @ 00000203ada98480] Statistics: 46541 bytes read, 0 seeks
cur_dts is invalid st:0 (0) [init:0 i_done:0 finish:0] (this is harmless if it occurs once at the start per stream)
[image2 @ 00000203ad4cecc0] Opening 'C:/Users/Raq/Desktop/mirkan projects/solanaDrink/static/gif/frame0139.png' for reading
[file @ 00000203adeaae40] Setting default whitelist 'file,crypto,data'
[AVIOContext @ 00000203ada98080] Statistics: 46541 bytes read, 0 seeks
cur_dts is invalid st:0 (0) [init:0 i_done:0 finish:0] (this is harmless if it occurs once at the start per stream)
[image2 @ 00000203ad4cecc0] Opening 'C:/Users/Raq/Desktop/mirkan projects/solanaDrink/static/gif/frame0140.png' for reading
[file @ 00000203adeac040] Setting default whitelist 'file,crypto,data'
[AVIOContext @ 00000203ada99180] Statistics: 50625 bytes read, 0 seeks
cur_dts is invalid st:0 (0) [init:0 i_done:0 finish:0] (this is harmless if it occurs once at the start per stream)
[image2 @ 00000203ad4cecc0] Opening 'C:/Users/Raq/Desktop/mirkan projects/solanaDrink/static/gif/frame0141.png' for reading
[file @ 00000203adeaab40] Setting default whitelist 'file,crypto,data'
[AVIOContext @ 00000203ada98080] Statistics: 50625 bytes read, 0 seeks
cur_dts is invalid st:0 (0) [init:0 i_done:0 finish:0] (this is harmless if it occurs once at the start per stream)
[image2 @ 00000203ad4cecc0] Opening 'C:/Users/Raq/Desktop/mirkan projects/solanaDrink/static/gif/frame0142.png' for reading
[file @ 00000203adeac340] Setting default whitelist 'file,crypto,data'
[AVIOContext @ 00000203ada981c0] Statistics: 50625 bytes read, 0 seeks
cur_dts is invalid st:0 (0) [init:0 i_done:0 finish:0] (this is harmless if it occurs once at the start per stream)
[image2 @ 00000203ad4cecc0] Opening 'C:/Users/Raq/Desktop/mirkan projects/solanaDrink/static/gif/frame0143.png' for reading
[file @ 00000203adeac540] Setting default whitelist 'file,crypto,data'
[AVIOContext @ 00000203ada98700] Statistics: 50625 bytes read, 0 seeks
cur_dts is invalid st:0 (0) [init:0 i_done:0 finish:0] (this is harmless if it occurs once at the start per stream)
[image2 @ 00000203ad4cecc0] Opening 'C:/Users/Raq/Desktop/mirkan projects/solanaDrink/static/gif/frame0144.png' for reading
[file @ 00000203adeab340] Setting default whitelist 'file,crypto,data'
[AVIOContext @ 00000203ada981c0] Statistics: 50625 bytes read, 0 seeks
cur_dts is invalid st:0 (0) [init:0 i_done:0 finish:0] (this is harmless if it occurs once at the start per stream)
[image2 @ 00000203ad4cecc0] Opening 'C:/Users/Raq/Desktop/mirkan projects/solanaDrink/static/gif/frame0145.png' for reading
[file @ 00000203adeaab40] Setting default whitelist 'file,crypto,data'
[AVIOContext @ 00000203ada981c0] Statistics: 50625 bytes read, 0 seeks
cur_dts is invalid st:0 (0) [init:0 i_done:0 finish:0] (this is harmless if it occurs once at the start per stream)
[image2 @ 00000203ad4cecc0] Opening 'C:/Users/Raq/Desktop/mirkan projects/solanaDrink/static/gif/frame0146.png' for reading
[file @ 00000203adeab940] Setting default whitelist 'file,crypto,data'
[AVIOContext @ 00000203ada98480] Statistics: 50625 bytes read, 0 seeks
cur_dts is invalid st:0 (0) [init:0 i_done:0 finish:0] (this is harmless if it occurs once at the start per stream)
[image2 @ 00000203ad4cecc0] Opening 'C:/Users/Raq/Desktop/mirkan projects/solanaDrink/static/gif/frame0147.png' for reading
[file @ 00000203adeaa740] Setting default whitelist 'file,crypto,data'
[AVIOContext @ 00000203ada98480] Statistics: 50625 bytes read, 0 seeks
cur_dts is invalid st:0 (0) [init:0 i_done:0 finish:0] (this is harmless if it occurs once at the start per stream)
[image2 @ 00000203ad4cecc0] Opening 'C:/Users/Raq/Desktop/mirkan projects/solanaDrink/static/gif/frame0148.png' for reading
[file @ 00000203adeaad40] Setting default whitelist 'file,crypto,data'
[AVIOContext @ 00000203ada98480] Statistics: 50625 bytes read, 0 seeks
cur_dts is invalid st:0 (0) [init:0 i_done:0 finish:0] (this is harmless if it occurs once at the start per stream)
[image2 @ 00000203ad4cecc0] Opening 'C:/Users/Raq/Desktop/mirkan projects/solanaDrink/static/gif/frame0149.png' for reading
[file @ 00000203adeabf40] Setting default whitelist 'file,crypto,data'
[AVIOContext @ 00000203ada981c0] Statistics: 50625 bytes read, 0 seeks
cur_dts is invalid st:0 (0) [init:0 i_done:0 finish:0] (this is harmless if it occurs once at the start per stream)
[image2 @ 00000203ad4cecc0] Opening 'C:/Users/Raq/Desktop/mirkan projects/solanaDrink/static/gif/frame0150.png' for reading
[file @ 00000203adeab640] Setting default whitelist 'file,crypto,data'
[AVIOContext @ 00000203ada98880] Statistics: 50625 bytes read, 0 seeks
cur_dts is invalid st:0 (0) [init:0 i_done:0 finish:0] (this is harmless if it occurs once at the start per stream)
[image2 @ 00000203ad4cecc0] Opening 'C:/Users/Raq/Desktop/mirkan projects/solanaDrink/static/gif/frame0151.png' for reading
[file @ 00000203adeabb40] Setting default whitelist 'file,crypto,data'
[AVIOContext @ 00000203ada981c0] Statistics: 50625 bytes read, 0 seeks
cur_dts is invalid st:0 (0) [init:0 i_done:0 finish:0] (this is harmless if it occurs once at the start per stream)
[image2 @ 00000203ad4cecc0] Opening 'C:/Users/Raq/Desktop/mirkan projects/solanaDrink/static/gif/frame0152.png' for reading
[file @ 00000203adeaba40] Setting default whitelist 'file,crypto,data'
[AVIOContext @ 00000203ada981c0] Statistics: 50625 bytes read, 0 seeks
cur_dts is invalid st:0 (0) [init:0 i_done:0 finish:0] (this is harmless if it occurs once at the start per stream)
[image2 @ 00000203ad4cecc0] Opening 'C:/Users/Raq/Desktop/mirkan projects/solanaDrink/static/gif/frame0153.png' for reading
[file @ 00000203adeabb40] Setting default whitelist 'file,crypto,data'
[AVIOContext @ 00000203add191c0] Statistics: 50625 bytes read, 0 seeks
cur_dts is invalid st:0 (0) [init:0 i_done:0 finish:0] (this is harmless if it occurs once at the start per stream)
[image2 @ 00000203ad4cecc0] Opening 'C:/Users/Raq/Desktop/mirkan projects/solanaDrink/static/gif/frame0154.png' for reading
[file @ 00000203adeaaf40] Setting default whitelist 'file,crypto,data'
[AVIOContext @ 00000203add19b00] Statistics: 50625 bytes read, 0 seeks
cur_dts is invalid st:0 (0) [init:0 i_done:0 finish:0] (this is harmless if it occurs once at the start per stream)
[image2 @ 00000203ad4cecc0] Opening 'C:/Users/Raq/Desktop/mirkan projects/solanaDrink/static/gif/frame0155.png' for reading
[file @ 00000203adeab840] Setting default whitelist 'file,crypto,data'
[AVIOContext @ 00000203add19480] Statistics: 50625 bytes read, 0 seeks
cur_dts is invalid st:0 (0) [init:0 i_done:0 finish:0] (this is harmless if it occurs once at the start per stream)
[image2 @ 00000203ad4cecc0] Opening 'C:/Users/Raq/Desktop/mirkan projects/solanaDrink/static/gif/frame0156.png' for reading
[file @ 00000203adeab240] Setting default whitelist 'file,crypto,data'
[AVIOContext @ 00000203add191c0] Statistics: 50625 bytes read, 0 seeks
cur_dts is invalid st:0 (0) [init:0 i_done:0 finish:0] (this is harmless if it occurs once at the start per stream)
[image2 @ 00000203ad4cecc0] Opening 'C:/Users/Raq/Desktop/mirkan projects/solanaDrink/static/gif/frame0157.png' for reading
[file @ 00000203adeab440] Setting default whitelist 'file,crypto,data'
[AVIOContext @ 00000203add19080] Statistics: 50625 bytes read, 0 seeks
cur_dts is invalid st:0 (0) [init:0 i_done:0 finish:0] (this is harmless if it occurs once at the start per stream)
[image2 @ 00000203ad4cecc0] Opening 'C:/Users/Raq/Desktop/mirkan projects/solanaDrink/static/gif/frame0158.png' for reading
[file @ 00000203adeac540] Setting default whitelist 'file,crypto,data'
[AVIOContext @ 00000203add19080] Statistics: 50625 bytes read, 0 seeks
cur_dts is invalid st:0 (0) [init:0 i_done:0 finish:0] (this is harmless if it occurs once at the start per stream)
[image2 @ 00000203ad4cecc0] Opening 'C:/Users/Raq/Desktop/mirkan projects/solanaDrink/static/gif/frame0159.png' for reading
[file @ 00000203adeab140] Setting default whitelist 'file,crypto,data'
[AVIOContext @ 00000203add19080] Statistics: 50625 bytes read, 0 seeks
cur_dts is invalid st:0 (0) [init:0 i_done:0 finish:0] (this is harmless if it occurs once at the start per stream)
[image2 @ 00000203ad4cecc0] Opening 'C:/Users/Raq/Desktop/mirkan projects/solanaDrink/static/gif/frame0160.png' for reading
[file @ 00000203adeac140] Setting default whitelist 'file,crypto,data'
[AVIOContext @ 00000203add19b00] Statistics: 50625 bytes read, 0 seeks
cur_dts is invalid st:0 (0) [init:0 i_done:0 finish:0] (this is harmless if it occurs once at the start per stream)
    Last message repeated 12 times
[Parsed_palettegen_0 @ 00000203ab697c00] 255(+1) colors generated out of 86759 colors; ratio=0.002939
cur_dts is invalid st:0 (0) [init:0 i_done:0 finish:0] (this is harmless if it occurs once at the start per stream)
Output #0, image2, to 'C:/Users/Raq/Desktop/mirkan projects/solanaDrink/static/gif/palette.png':
  Metadata:
    encoder         : Lavf58.76.100
  Stream #0:0, 0, 1/24: Video: png, 1 reference frame, rgba(pc, progressive), 16x16 (0x0) [SAR 1:1 DAR 1:1], 0/1, q=2-31, 200 kb/s, 24 fps, 24 tbn
    Metadata:
      encoder         : Lavc58.134.100 png
Clipping frame in rate conversion by 0.000008
frame=    1 fps=0.9 q=0.0 size=N/A time=00:00:00.00 bitrate=N/A speed=   0x    cur_dts is invalid st:0 (0) [init:1 i_done:0 finish:0] (this is harmless if it occurs once at the start per stream)
[out_0_0 @ 00000203ad4d32c0] EOF on sink link out_0_0:default.
No more output streams to write to, finishing.
[image2 @ 00000203ad4d1640] Opening 'C:/Users/Raq/Desktop/mirkan projects/solanaDrink/static/gif/palette.png' for writing
[file @ 00000203adeaab40] Setting default whitelist 'file,crypto,data'
[AVIOContext @ 00000203add19480] Statistics: 0 seeks, 1 writeouts
frame=    1 fps=0.9 q=-0.0 Lsize=N/A time=00:00:00.04 bitrate=N/A speed=0.0362x    
[AVIOContext @ 00000203ad4ceb80] Statistics: 0 seeks, 2 writeouts
video:1kB audio:0kB subtitle:0kB other streams:0kB global headers:0kB muxing overhead: unknown
Input file #0 (C:/Users/Raq/Desktop/mirkan projects/solanaDrink/static/gif/frame%04d.png):
  Input stream #0:0 (video): 161 packets read (8656555 bytes); 161 frames decoded; 
  Total: 161 packets (8656555 bytes) demuxed
Output file #0 (C:/Users/Raq/Desktop/mirkan projects/solanaDrink/static/gif/palette.png):
  Output stream #0:0 (video): 1 frames encoded; 1 packets muxed (1001 bytes); 
  Total: 1 packets (1001 bytes) muxed
161 frames successfully decoded, 0 decoding errors
